<?xml version="1.0" standalone="no"?>
<!DOCTYPE svg PUBLIC "-//W3C//DTD SVG 20010904//EN"
 "http://www.w3.org/TR/2001/REC-SVG-20010904/DTD/svg10.dtd">
<svg version="1.0" xmlns="http://www.w3.org/2000/svg"
 width="current" height="current" viewBox="0 0 512.000000 512.000000"
 preserveAspectRatio="xMidYMid meet">

<g transform="translate(0.000000,512.000000) scale(0.100000,-0.100000)"
fill="current" stroke="none">
<path d="M1251 5106 c-48 -27 -50 -42 -51 -338 l0 -278 -110 0 c-63 0 -120 -5
-135 -12 -52 -23 -55 -43 -55 -343 l0 -275 -110 0 c-123 0 -158 -11 -178 -55
-9 -18 -12 -121 -12 -356 l0 -329 -300 -600 -300 -600 2 -847 c3 -838 3 -849
24 -894 31 -66 78 -114 142 -146 l57 -28 2335 0 2335 0 57 28 c64 32 111 80
142 146 21 45 21 56 24 893 l2 847 -300 601 -300 600 0 329 c0 235 -3 338 -12
356 -20 44 -55 55 -178 55 l-110 0 0 275 c0 191 -4 282 -12 300 -20 44 -55 55
-178 55 l-110 0 0 275 c0 296 -3 316 -51 341 -40 20 -2581 21 -2618 0z m2469
-401 l0 -215 -1160 0 -1160 0 0 215 0 215 1160 0 1160 0 0 -215z m300 -630 l0
-215 -1460 0 -1460 0 0 215 0 215 1460 0 1460 0 0 -215z m300 -1245 l0 -830
-75 0 c-157 0 -273 -46 -376 -149 -103 -103 -149 -219 -149 -376 l0 -75 -1160
0 -1160 0 0 75 c0 157 -46 273 -149 376 -103 103 -219 149 -376 149 l-75 0 0
830 0 830 1760 0 1760 0 0 -830z m-3299 -1056 c66 -31 114 -78 146 -142 26
-53 28 -67 31 -202 3 -160 11 -194 53 -215 42 -22 2576 -22 2618 0 42 21 50
55 53 215 3 135 5 149 31 202 32 64 80 111 146 142 44 20 64 21 434 24 l387 3
0 -761 c0 -826 2 -802 -55 -828 -20 -9 -560 -12 -2306 -12 -2481 0 -2320 -4
-2347 55 -9 19 -12 218 -12 786 l0 760 388 -3 c369 -3 389 -4 433 -24z"/>
<path d="M1251 3186 c-67 -37 -65 -143 4 -174 20 -9 335 -12 1306 -12 1088 0
1284 2 1308 14 66 35 66 137 0 172 -40 20 -2581 21 -2618 0z"/>
<path d="M1251 2586 c-67 -37 -65 -143 4 -174 20 -9 335 -12 1306 -12 1088 0
1284 2 1308 14 66 35 66 137 0 172 -40 20 -2581 21 -2618 0z"/>
<path d="M1851 1986 c-67 -37 -65 -143 4 -174 37 -17 1373 -17 1410 0 29 13
55 55 55 88 0 33 -26 75 -55 88 -40 18 -1381 16 -1414 -2z"/>
<path d="M1851 786 c-67 -37 -65 -143 4 -174 37 -17 1373 -17 1410 0 29 13 55
55 55 88 0 33 -26 75 -55 88 -40 18 -1381 16 -1414 -2z"/>
</g>
</svg>
